<?xml version="1.0" encoding="UTF-8" standalone="no"?>
<svg
   xmlns:dc="http://purl.org/dc/elements/1.1/"
   xmlns:cc="http://creativecommons.org/ns#"
   xmlns:rdf="http://www.w3.org/1999/02/22-rdf-syntax-ns#"
   xmlns:svg="http://www.w3.org/2000/svg"
   xmlns="http://www.w3.org/2000/svg"
   xmlns:sodipodi="http://sodipodi.sourceforge.net/DTD/sodipodi-0.dtd"
   xmlns:inkscape="http://www.inkscape.org/namespaces/inkscape"
   width="50.000008mm"
   height="54.819599mm"
   viewBox="0 0 50.000008 54.8196"
   version="1.1"
   id="svg8"
   inkscape:version="1.0.1 (0767f8302a, 2020-10-17)"
   sodipodi:docname="contractor.svg">
  <defs
     id="defs2" />
  <sodipodi:namedview
     id="base"
     pagecolor="#ffffff"
     bordercolor="#666666"
     borderopacity="1.0"
     inkscape:pageopacity="0.0"
     inkscape:pageshadow="2"
     inkscape:zoom="0.35"
     inkscape:cx="524.76627"
     inkscape:cy="412.3129"
     inkscape:document-units="mm"
     inkscape:current-layer="layer1"
     inkscape:document-rotation="0"
     showgrid="false"
     fit-margin-top="0"
     fit-margin-left="0"
     fit-margin-right="0"
     fit-margin-bottom="0"
     inkscape:window-width="1280"
     inkscape:window-height="683"
     inkscape:window-x="0"
     inkscape:window-y="0"
     inkscape:window-maximized="1" />
  <metadata
     id="metadata5">
    <rdf:RDF>
      <cc:Work
         rdf:about="">
        <dc:format>image/svg+xml</dc:format>
        <dc:type
           rdf:resource="http://purl.org/dc/dcmitype/StillImage" />
        <dc:title></dc:title>
      </cc:Work>
    </rdf:RDF>
  </metadata>
  <g
     inkscape:label="Слой 1"
     inkscape:groupmode="layer"
     id="layer1"
     transform="translate(33.011076,-39.075545)">
    <path
       style="fill:#ffffff;stroke-width:0.107164"
       d="m -12.546319,93.829274 c -7.108061,-0.442105 -12.97946,-1.66649 -16.497372,-3.44026 -1.253701,-0.632132 -1.961452,-1.120819 -2.698337,-1.863143 -2.49852,-2.516969 -1.244062,-5.44697 3.202038,-7.478909 l 0.625166,-0.285712 -0.06564,0.828697 c -0.160278,2.023292 -0.134324,1.933343 -0.630022,2.183582 -2.125732,1.073119 -2.489609,2.434282 -0.950853,3.55688 2.148551,1.567472 7.137709,2.987822 12.827191,3.651741 2.951434,0.344412 4.700258,0.430643 8.733849,0.430643 4.0335944,0 5.7824186,-0.08623 8.73384995,-0.430643 C 6.4114286,90.319584 11.41657,88.894682 13.560742,87.330409 c 1.260911,-0.919897 1.260911,-2.046107 0,-2.964392 -0.276845,-0.201619 -0.705264,-0.468513 -0.952044,-0.593096 -0.501547,-0.253199 -0.498679,-0.243718 -0.629349,-2.080603 l -0.06691,-0.940655 0.411132,0.19051 c 3.125954,1.448483 4.675881,3.081161 4.665306,4.914377 -0.01021,1.766698 -1.313905,3.215996 -4.145812,4.608776 -3.2061981,1.576861 -7.9376854,2.646861 -14.1992043,3.211078 -2.2032014,0.198525 -8.9698837,0.290962 -11.1901747,0.15287 z m 0.848867,-4.505748 c -0.235759,-0.03763 -0.551082,-0.118645 -0.700711,-0.18008 -0.419443,-0.172214 -1.046473,-0.931254 -1.127916,-1.36538 -0.0399,-0.212652 0.03054,-3.964921 0.156527,-8.338383 0.125985,-4.373458 0.228235,-8.277253 0.227227,-8.675102 l -0.002,-0.723355 h -0.501983 c -0.65884,0 -1.365667,-0.349973 -1.700504,-0.841978 -0.146148,-0.214723 -0.940077,-2.083916 -1.764297,-4.153766 -1.602342,-4.023926 -1.68515,-4.345346 -1.309239,-5.081787 0.474726,-0.930037 4.307301,-6.208547 5.061249,-6.970739 1.382342,-1.397455 2.839635,-1.920268 5.3489735,-1.918973 2.4015321,0.0012 4.0101195,0.533608 5.2723748,1.744919 0.5981054,0.573963 4.9420615,6.608471 5.2015507,7.225857 0.3076152,0.731879 0.2147344,1.075228 -1.3547957,5.008195 -0.82485302,2.066941 -1.61877788,3.933265 -1.76427623,4.147387 -0.34560687,0.508602 -1.03829087,0.840885 -1.75293947,0.840885 h -0.5555654 l -0.00203,0.509027 c -0.00122,0.279968 0.1260006,4.179972 0.2823861,8.66668 0.1563817,4.486708 0.2513282,8.33358 0.2109875,8.548606 -0.1661505,0.885664 -1.137203,1.566634 -2.2285686,1.562823 -1.3089791,-0.0046 -2.0570836,-0.61984 -2.2384306,-1.840972 -0.055137,-0.371266 -0.2442038,-3.544337 -0.4201446,-7.051272 -0.4309582,-8.589887 -0.3922742,-8.144452 -0.7072403,-8.144452 -0.2155402,0 -0.2559702,0.05416 -0.259972,0.348284 -0.00243,0.191553 -0.1616143,3.678048 -0.3533507,7.747759 -0.3227916,6.851536 -0.3648091,7.43084 -0.5674125,7.82296 -0.4141665,0.801584 -1.4505565,1.272313 -2.4501555,1.112857 z m -0.827319,-28.793088 -0.02997,-1.366339 -0.669773,0.938897 c -0.368376,0.516393 -0.669775,0.982796 -0.669775,1.036449 0,0.05365 0.301399,0.860858 0.669775,1.793782 l 0.669773,1.696225 0.02997,-1.366336 c 0.01648,-0.751487 0.01648,-1.981192 0,-2.732678 z m 9.7679525,2.386344 c 0.3577905,-0.912498 0.6505289,-1.712741 0.6505289,-1.778315 0,-0.121078 -1.2619516,-1.920786 -1.3468496,-1.920786 -0.025436,0 -0.046283,1.205593 -0.046283,2.679095 0,1.473503 0.020738,2.679095 0.04604,2.679095 0.025314,0 0.3387698,-0.74659 0.6965637,-1.659089 z M -24.727792,85.866453 c -0.259765,-0.137138 -0.616972,-0.455588 -0.793791,-0.707666 -0.317551,-0.4527 -0.321273,-0.474276 -0.303719,-1.759974 0.0098,-0.715909 0.167374,-3.085933 0.350216,-5.266717 0.283496,-3.381263 0.540142,-7.026945 0.499234,-7.091677 -0.0066,-0.01037 -0.291503,0.07552 -0.633221,0.190886 -0.487756,0.164664 -0.702409,0.187354 -0.998647,0.105558 -0.491324,-0.13566 -1.067906,-0.580499 -1.277322,-0.985471 -0.09151,-0.176957 -0.429792,-1.457738 -0.751746,-2.846188 -0.321953,-1.388446 -0.705154,-2.950505 -0.851564,-3.471233 -0.315756,-1.123041 -0.325295,-1.407358 -0.06631,-1.977427 0.107344,-0.236296 1.192829,-2.053283 2.412184,-4.037746 2.430054,-3.954832 2.795292,-4.404375 4.064417,-5.002525 1.902723,-0.896773 4.422884,-0.663052 5.888986,0.546149 l 0.295217,0.243487 -1.40751,1.98253 c -1.879621,2.647511 -2.080803,2.968685 -2.338186,3.732719 -0.297433,0.882909 -0.285035,1.770493 0.03815,2.731797 0.403643,1.200625 2.836042,7.247054 3.144929,7.817643 0.152327,0.281381 0.51211,0.731563 0.79951,1.000392 l 0.522556,0.488789 0.257286,4.304214 c 0.210624,3.523473 0.243702,4.763849 0.182368,6.838174 -0.08407,2.84352 -0.07707,2.819396 -0.93223,3.212088 -0.937101,0.430318 -2.063855,0.119872 -2.66563,-0.734443 -0.386365,-0.548502 -0.417933,-0.861824 -0.710084,-7.047716 -0.287643,-6.090544 -0.317794,-6.483413 -0.497558,-6.483413 -0.08714,0 -0.145381,0.118049 -0.145393,0.294703 -2.8e-5,0.379183 -0.268546,3.813299 -0.534184,6.831693 -0.114117,1.296679 -0.261814,3.104625 -0.328219,4.017657 -0.06806,0.935729 -0.189027,1.823495 -0.277254,2.034649 -0.473499,1.133241 -1.846039,1.617923 -2.94248,1.039068 z m -0.09723,-21.956526 c 0,-2.23634 -0.01029,-2.261399 -0.533986,-1.301947 l -0.241968,0.443295 0.231401,1.056999 c 0.291795,1.332883 0.432247,1.860729 0.495103,1.860729 0.02718,0 0.04945,-0.926587 0.04945,-2.059076 z M 0.61796108,85.912582 c -0.85004972,-0.386073 -0.86105475,-0.424612 -0.94243719,-3.300363 -0.0595752,-2.105294 -0.025962,-3.289399 0.19227153,-6.775031 L 0.13225887,71.613332 0.71672681,71.014816 C 1.0381862,70.685634 1.3995323,70.219159 1.5197249,69.978211 1.6399125,69.73726 2.4210024,67.832644 3.2554746,65.745731 5.5374907,60.038694 5.5692164,60.318175 2.0885873,55.466948 L 0.89683935,53.805909 1.1326755,53.60954 c 1.5383712,-1.280928 4.0794515,-1.513129 6.0434311,-0.552243 1.1835623,0.579063 1.5785622,1.073255 3.9679274,4.964367 1.218261,1.983962 2.302814,3.800098 2.410118,4.035858 0.251454,0.552489 0.248441,0.88521 -0.01608,1.773372 -0.118726,0.398661 -0.502353,1.957292 -0.852508,3.463625 -0.350156,1.506331 -0.711089,2.882743 -0.802079,3.058696 -0.208569,0.403327 -0.78584,0.848202 -1.276378,0.983648 -0.296238,0.0818 -0.510891,0.05911 -0.998647,-0.105558 -0.3417186,-0.115366 -0.6284179,-0.201264 -0.6371178,-0.190886 -0.040017,0.04774 0.2067466,3.587022 0.4944629,7.091677 0.4966744,6.050022 0.5016723,6.227951 0.1911165,6.804902 C 8.7912795,86.545204 6.4730217,86.4753 5.7816297,84.820143 5.6895021,84.599593 5.5715495,83.753456 5.5052666,82.837613 5.441677,81.958839 5.2487213,79.60024 5.076483,77.596276 4.9042486,75.592312 4.7301312,73.4343 4.6895553,72.800693 c -0.051402,-0.802637 -0.1138981,-1.15201 -0.2060745,-1.15201 -0.1651709,0 -0.2053214,0.538432 -0.4834382,6.483413 -0.289016,6.177926 -0.3212324,6.498607 -0.7080264,7.047716 -0.6032294,0.856381 -1.7250368,1.163789 -2.67405512,0.73277 z M 9.3012306,64.400867 9.5917049,63.100642 9.377198,62.686247 c -0.5402313,-1.043637 -0.54595,-1.030584 -0.5461123,1.246641 -8.5e-5,1.181962 0.038883,2.01987 0.089758,1.928948 0.04945,-0.08841 0.2206231,-0.745843 0.3803869,-1.460969 z M -21.556524,51.350676 c -2.413674,-0.599047 -4.019742,-3.023464 -3.609209,-5.448234 0.173267,-1.023388 0.570908,-1.817939 1.286371,-2.570382 1.147069,-1.206353 2.605812,-1.720742 4.170814,-1.470731 1.596906,0.255106 2.93674,1.259083 3.630862,2.720706 0.929589,1.957451 0.450015,4.273052 -1.182602,5.710138 -1.174628,1.03395 -2.790784,1.432138 -4.296236,1.058503 z M 3.147332,51.330092 C 2.8245931,51.243365 2.3453958,51.04633 2.0824552,50.892236 -1.3819731,48.861945 -1.1726625,43.901364 2.4481715,42.224882 5.1187517,40.988376 8.3332042,42.549946 9.0888014,45.450879 10.009205,48.984548 6.6795699,52.279292 3.147332,51.330094 Z M -9.1350664,49.949741 c -1.0102826,-0.219819 -1.9343276,-0.743417 -2.7234856,-1.543229 -1.40726,-1.426259 -1.917133,-3.331849 -1.410641,-5.272102 0.48961,-1.875586 2.256475,-3.544862 4.1757391,-3.945099 3.3635963,-0.701434 6.5630749,1.931557 6.5572344,5.396235 -0.00433,2.571544 -1.8426934,4.831566 -4.3648714,5.366039 -0.8756554,0.185559 -1.3745659,0.185148 -2.2339755,-0.0019 z"
       id="path58" />
  </g>
</svg>
