<?xml version="1.0" encoding="UTF-8" standalone="no"?>
<svg
   xmlns:dc="http://purl.org/dc/elements/1.1/"
   xmlns:cc="http://creativecommons.org/ns#"
   xmlns:rdf="http://www.w3.org/1999/02/22-rdf-syntax-ns#"
   xmlns:svg="http://www.w3.org/2000/svg"
   xmlns="http://www.w3.org/2000/svg"
   xmlns:sodipodi="http://sodipodi.sourceforge.net/DTD/sodipodi-0.dtd"
   xmlns:inkscape="http://www.inkscape.org/namespaces/inkscape"
   width="55.000004mm"
   height="55.028553mm"
   viewBox="0 0 55.000004 55.028553"
   version="1.1"
   id="svg8"
   inkscape:version="1.0.1 (0767f8302a, 2020-10-17)"
   sodipodi:docname="plus.svg">
  <defs
     id="defs2" />
  <sodipodi:namedview
     id="base"
     pagecolor="#ffffff"
     bordercolor="#666666"
     borderopacity="1.0"
     inkscape:pageopacity="0.0"
     inkscape:pageshadow="2"
     inkscape:zoom="0.35"
     inkscape:cx="-136.97574"
     inkscape:cy="507.20034"
     inkscape:document-units="mm"
     inkscape:current-layer="layer1"
     inkscape:document-rotation="0"
     showgrid="false"
     fit-margin-top="0"
     fit-margin-left="0"
     fit-margin-right="0"
     fit-margin-bottom="0"
     inkscape:window-width="1280"
     inkscape:window-height="683"
     inkscape:window-x="0"
     inkscape:window-y="0"
     inkscape:window-maximized="1" />
  <metadata
     id="metadata5">
    <rdf:RDF>
      <cc:Work
         rdf:about="">
        <dc:format>image/svg+xml</dc:format>
        <dc:type
           rdf:resource="http://purl.org/dc/dcmitype/StillImage" />
        <dc:title></dc:title>
      </cc:Work>
    </rdf:RDF>
  </metadata>
  <g
     inkscape:label="Слой 1"
     inkscape:groupmode="layer"
     id="layer1"
     transform="translate(-142.07483,-13.96991)">
    <path
       style="fill:#ffffff;stroke-width:0.107677"
       d="m 167.63665,68.971464 c -0.20727,-0.0243 -0.83718,-0.09412 -1.39979,-0.155168 -2.74978,-0.298363 -5.90462,-1.223454 -8.54597,-2.505931 -2.97318,-1.443591 -4.95971,-2.832 -7.26837,-5.079943 -2.5042,-2.438338 -4.02784,-4.531154 -5.56721,-7.646911 -1.37237,-2.77774 -2.23448,-5.632954 -2.64973,-8.775632 -0.17433,-1.319352 -0.17433,-5.356587 0,-6.675939 0.67909,-5.139401 2.75246,-10.032502 5.9086,-13.944102 1.12784,-1.397807 3.45968,-3.66362 4.82893,-4.692211 3.85523,-2.896061 8.42881,-4.752148 13.29375,-5.394967 1.31935,-0.174333 5.35659,-0.174333 6.67594,0 3.009,0.397589 5.94734,1.267056 8.54598,2.528794 2.97317,1.44359 4.9597,2.832 7.26836,5.079944 2.5042,2.438333 4.02784,4.531153 5.56721,7.64691 1.37237,2.77774 2.23448,5.632954 2.64973,8.775632 0.17434,1.319352 0.17434,5.356587 0,6.675939 -0.67908,5.139401 -2.75246,10.032502 -5.9086,13.944102 -1.12784,1.397807 -3.45968,3.663624 -4.82893,4.692211 -3.82242,2.871419 -8.45747,4.761764 -13.18607,5.377761 -0.94431,0.123017 -4.71627,0.227766 -5.38383,0.149511 z m 4.63292,-4.679253 c 4.28703,-0.529927 8.4796,-2.309366 11.84158,-5.025873 0.95834,-0.774355 2.87553,-2.728196 3.56872,-3.636972 2.56992,-3.36913 4.20573,-7.345104 4.71684,-11.464722 0.14451,-1.164737 0.14605,-4.098055 0.003,-5.281795 -0.85619,-7.073633 -4.77312,-13.236379 -10.78048,-16.961605 -2.76144,-1.712396 -6.10334,-2.870044 -9.4571,-3.275981 -1.17364,-0.142059 -4.00049,-0.142059 -5.17412,0 -7.07364,0.856188 -13.23638,4.773115 -16.96161,10.780482 -1.71239,2.761437 -2.87004,6.103337 -3.27598,9.457104 -0.1621,1.339196 -0.13461,4.113448 0.0552,5.569569 0.89333,6.853726 4.8716,12.97429 10.81737,16.642496 2.5362,1.564692 6.05308,2.795325 9.10907,3.187461 1.06425,0.136562 4.46371,0.142601 5.53775,0.0098 z m -3.60999,-6.924371 c -0.38604,-0.177937 -0.8101,-0.562687 -1.08878,-0.987857 -0.19164,-0.292356 -0.20643,-0.663672 -0.25717,-6.452616 l -0.0538,-6.142414 -6.14556,-0.05384 -6.14556,-0.05384 -0.39753,-0.269192 c -0.21865,-0.148054 -0.53,-0.458866 -0.6919,-0.690691 -0.25839,-0.369985 -0.29436,-0.522289 -0.29436,-1.246167 0,-0.701825 0.0401,-0.883906 0.26919,-1.222315 0.14805,-0.218703 0.45881,-0.53011 0.69058,-0.69201 l 0.42139,-0.294362 6.14687,-0.05384 6.14688,-0.05384 0.0538,-6.146875 0.0538,-6.146874 0.29437,-0.421389 c 0.16189,-0.231767 0.4733,-0.542527 0.692,-0.690581 0.33828,-0.229 0.52058,-0.269191 1.221,-0.269191 0.70042,0 0.88273,0.04021 1.221,0.269191 0.2187,0.148054 0.53011,0.458814 0.69201,0.690581 l 0.29436,0.421389 0.0538,6.146874 0.0538,6.146875 6.14688,0.05384 6.14687,0.05384 0.42139,0.294362 c 0.23177,0.1619 0.54253,0.473307 0.69058,0.69201 0.2291,0.338409 0.26919,0.52049 0.26919,1.222315 0,0.723878 -0.036,0.876182 -0.29436,1.246167 -0.1619,0.231825 -0.47325,0.542637 -0.69189,0.690691 l -0.39754,0.269192 -6.14556,0.05384 -6.14556,0.05384 -0.0538,6.146875 -0.0538,6.146874 -0.29436,0.421389 c -0.47446,0.679206 -0.96616,0.949387 -1.79356,0.985546 -0.44137,0.01929 -0.83436,-0.02544 -1.0347,-0.117797 z"
       id="path24" />
  </g>
</svg>
