<?xml version="1.0" encoding="UTF-8" standalone="no"?>
<svg
   xmlns:dc="http://purl.org/dc/elements/1.1/"
   xmlns:cc="http://creativecommons.org/ns#"
   xmlns:rdf="http://www.w3.org/1999/02/22-rdf-syntax-ns#"
   xmlns:svg="http://www.w3.org/2000/svg"
   xmlns="http://www.w3.org/2000/svg"
   xmlns:sodipodi="http://sodipodi.sourceforge.net/DTD/sodipodi-0.dtd"
   xmlns:inkscape="http://www.inkscape.org/namespaces/inkscape"
   width="63.963718mm"
   height="67.110939mm"
   viewBox="0 0 63.963718 67.110939"
   version="1.1"
   id="svg8"
   inkscape:version="1.0 (4035a4fb49, 2020-05-01)"
   sodipodi:docname="invoice.svg">
  <defs
     id="defs2" />
  <sodipodi:namedview
     id="base"
     pagecolor="#ffffff"
     bordercolor="#666666"
     borderopacity="1.0"
     inkscape:pageopacity="0.0"
     inkscape:pageshadow="2"
     inkscape:zoom="0.7"
     inkscape:cx="29.028578"
     inkscape:cy="76.423521"
     inkscape:document-units="mm"
     inkscape:current-layer="layer1"
     inkscape:document-rotation="0"
     showgrid="false"
     fit-margin-top="0"
     fit-margin-left="0"
     fit-margin-right="0"
     fit-margin-bottom="0"
     inkscape:window-width="1648"
     inkscape:window-height="1040"
     inkscape:window-x="234"
     inkscape:window-y="0"
     inkscape:window-maximized="0" />
  <metadata
     id="metadata5">
    <rdf:RDF>
      <cc:Work
         rdf:about="">
        <dc:format>image/svg+xml</dc:format>
        <dc:type
           rdf:resource="http://purl.org/dc/dcmitype/StillImage" />
        <dc:title />
      </cc:Work>
    </rdf:RDF>
  </metadata>
  <g
     inkscape:label="Слой 1"
     inkscape:groupmode="layer"
     id="layer1"
     transform="translate(-119.30298,-24.507841)">
    <path
       style="fill:#ffffff;stroke-width:0.264583"
       d="m 134.78632,91.292409 c -1.33737,-0.48072 -2.75408,-1.87265 -3.1007,-3.04645 -0.15162,-0.51345 -0.23779,-1.70746 -0.19149,-2.65334 l 0.0842,-1.7198 1.30538,-0.0826 c 2.29139,-0.14504 2.53108,0.0105 2.53108,1.64277 0,0.8724 0.13837,1.53261 0.35973,1.71632 0.26208,0.21751 6.16992,0.28017 21.76198,0.23084 l 21.40225,-0.0677 0.0676,-22.93687 0.0676,-22.93687 -5.14231,-0.0819 c -4.74367,-0.0755 -5.20014,-0.12505 -5.88843,-0.63871 -1.61716,-1.20684 -1.79603,-1.88599 -1.89163,-7.18223 l -0.0872,-4.82865 h -15.02783 c -12.24788,0 -15.08234,0.0657 -15.32248,0.35502 -0.20641,0.24871 -0.31515,4.58644 -0.36313,14.48594 l -0.0685,14.13091 h -1.85208 -1.85208 l -0.0683,-14.70474 -0.0684,-14.70475 0.61609,-1.17025 c 0.41342,-0.78528 1.00165,-1.38785 1.78814,-1.83171 l 1.17204,-0.66146 15.875,-0.0809 c 10.3018,-0.0525 16.20011,0.0143 16.80105,0.19022 0.69636,0.20388 2.70931,2.06136 8.11609,7.48925 5.99952,6.02293 7.21711,7.37145 7.35342,8.14416 0.0898,0.50932 0.12855,11.46307 0.086,24.34166 -0.0762,23.05064 -0.0858,23.43001 -0.61923,24.33801 -0.29803,0.5073 -1.05236,1.28121 -1.67631,1.71979 l -1.13445,0.79741 -22.0039,0.0576 c -18.24885,0.0478 -22.17888,-0.005 -23.02923,-0.31094 z m -13.0418,-9.9541 c -1.1385,-0.33609 -2.13796,-1.5994 -2.33931,-2.95685 -0.0916,-0.61777 -0.1286,-4.28396 -0.0822,-8.14708 0.0934,-7.77103 0.12508,-7.92213 1.88475,-8.99507 0.80855,-0.49301 1.42985,-0.51559 14.21111,-0.51654 12.44024,-7.9e-4 13.428,0.0325 14.26706,0.48248 1.82406,0.97825 1.89165,1.35237 1.8094,10.01485 -0.0695,7.3234 -0.10134,7.75772 -0.61881,8.45032 -0.30004,0.40157 -0.87419,0.97561 -1.27589,1.27564 -0.71265,0.53227 -1.04937,0.54666 -13.87428,0.59257 -7.5337,0.027 -13.50157,-0.0585 -13.98186,-0.20032 z m 26.48364,-3.04063 c 0.33956,-0.33956 0.41578,-1.11561 0.41578,-4.23334 v -3.81756 H 135.41477 122.1856 v 3.91584 c 0,2.69287 0.0992,4.01499 0.3175,4.23333 0.23798,0.23798 3.44715,0.3175 12.8134,0.3175 11.00712,0 12.54542,-0.0495 12.91166,-0.41577 z m -9.63839,-3.42069 v -0.92604 h 4.10104 4.10104 v 0.92604 0.92604 h -4.10104 -4.10104 z m 10.00323,-9.98802 -0.0814,-1.12448 -12.80209,-0.0687 c -9.23303,-0.0496 -12.90272,0.0148 -13.16302,0.23084 -0.19851,0.16475 -0.36093,0.70168 -0.36093,1.19318 v 0.89365 h 13.24438 13.24438 z m 11.56031,15.44422 c -0.72057,-0.15408 -0.79375,-0.26682 -0.79375,-1.22287 0,-0.95604 0.0732,-1.06878 0.79375,-1.22286 0.43657,-0.0934 2.99641,-0.16974 5.68854,-0.16974 2.69214,0 5.25198,0.0764 5.68855,0.16974 0.72057,0.15408 0.79375,0.26682 0.79375,1.22286 0,0.95605 -0.0732,1.06879 -0.79375,1.22287 -0.43657,0.0934 -2.99641,0.16973 -5.68855,0.16973 -2.69213,0 -5.25197,-0.0764 -5.68854,-0.16973 z m 0.92604,-7.07477 c -1.90627,-0.33739 -1.88795,-0.3235 -1.80137,-1.36572 0.1084,-1.30482 0.19573,-1.31873 8.28367,-1.31873 8.06114,0 8.1754,0.0179 8.28219,1.29398 0.0601,0.71779 -0.0392,1.01061 -0.39687,1.17026 -0.5041,0.22504 -13.23767,0.4202 -14.36762,0.22021 z m -1.05833,-7.21565 c -0.52727,-0.14549 -0.67784,-0.37711 -0.74223,-1.14177 -0.0678,-0.80482 0.0174,-0.99077 0.52916,-1.15492 0.74332,-0.23843 14.81806,-0.21672 15.57659,0.024 0.43709,0.13873 0.52526,0.35728 0.45997,1.14015 -0.0697,0.83635 -0.18911,0.9915 -0.87453,1.13685 -1.07641,0.22826 -14.1197,0.22449 -14.94896,-0.004 z m -12.23706,-9.81421 c -1.52502,-1.19958 -0.61025,-3.70886 1.35208,-3.70886 1.10407,0 2.15373,1.01145 2.15373,2.07533 0,1.7586 -2.10179,2.73794 -3.50581,1.63353 z m 10.16257,0.1009 c -0.84718,-0.59339 -1.13938,-1.50264 -0.79778,-2.48253 0.51135,-1.46687 2.39635,-1.8272 3.54575,-0.6778 1.79092,1.79092 -0.66713,4.61781 -2.74797,3.16033 z m -11.52566,-5.80604 c -0.45111,-0.45111 -0.46818,-0.50875 -1.99566,-6.73497 -1.69393,-6.90474 -1.46573,-6.35 -2.61219,-6.35 -1.7767,0 -2.74485,-1.23435 -1.74914,-2.23006 0.27479,-0.2748 0.89778,-0.41577 1.83733,-0.41577 1.91593,0 2.63259,0.63834 3.26748,2.91041 l 0.48056,1.71979 8.60331,0.0697 c 8.04171,0.0652 8.63277,0.10226 9.05455,0.56832 0.42771,0.47261 0.38651,0.73795 -0.79021,5.08966 -0.68279,2.52508 -1.40737,4.85895 -1.61018,5.18637 -0.36702,0.59255 -0.40052,0.59531 -7.2229,0.59531 -5.82855,0 -6.91534,-0.0612 -7.26295,-0.40878 z m 4.45313,-2.65283 c 0.22867,-0.22867 0.41577,-0.51318 0.41577,-0.63223 0,-0.73845 -0.88682,-4.69813 -1.11338,-4.97126 -0.39656,-0.47809 -1.20959,-0.40606 -1.49306,0.13229 -0.37948,0.72065 0.356,5.1348 0.92485,5.55075 0.59404,0.43438 0.76248,0.42379 1.26582,-0.0795 z m 4.09745,0.046 c 0.19917,-0.23999 0.28019,-1.27486 0.23083,-2.94849 -0.0624,-2.11502 -0.15931,-2.63108 -0.53907,-2.87001 -0.337,-0.21202 -0.58904,-0.21202 -0.92604,0 -0.37977,0.23893 -0.4767,0.75499 -0.53908,2.87001 -0.079,2.67735 0.11459,3.31827 1.0021,3.31827 0.2554,0 0.60247,-0.1664 0.77126,-0.36978 z m 3.70242,0.002 c 0.5128,-0.61788 1.14591,-4.84042 0.8177,-5.45368 -0.33617,-0.62815 -1.12426,-0.6896 -1.59346,-0.12425 -0.53231,0.6414 -0.95648,5.02632 -0.53531,5.53381 0.42329,0.51003 0.91079,0.52643 1.31107,0.0441 z"
       id="path847" />
  </g>
</svg>
