<?xml version="1.0" encoding="UTF-8" standalone="no"?>
<svg
   xmlns:dc="http://purl.org/dc/elements/1.1/"
   xmlns:cc="http://creativecommons.org/ns#"
   xmlns:rdf="http://www.w3.org/1999/02/22-rdf-syntax-ns#"
   xmlns:svg="http://www.w3.org/2000/svg"
   xmlns="http://www.w3.org/2000/svg"
   xmlns:sodipodi="http://sodipodi.sourceforge.net/DTD/sodipodi-0.dtd"
   xmlns:inkscape="http://www.inkscape.org/namespaces/inkscape"
   width="49.999996mm"
   height="43.14259mm"
   viewBox="0 0 49.999997 43.14259"
   version="1.1"
   id="svg8"
   inkscape:version="1.0.1 (0767f8302a, 2020-10-17)"
   sodipodi:docname="product-type.svg">
  <defs
     id="defs2" />
  <sodipodi:namedview
     id="base"
     pagecolor="#ffffff"
     bordercolor="#666666"
     borderopacity="1.0"
     inkscape:pageopacity="0.0"
     inkscape:pageshadow="2"
     inkscape:zoom="0.35"
     inkscape:cx="571.42501"
     inkscape:cy="503.62641"
     inkscape:document-units="mm"
     inkscape:current-layer="layer1"
     inkscape:document-rotation="0"
     showgrid="false"
     fit-margin-top="0"
     fit-margin-left="0"
     fit-margin-right="0"
     fit-margin-bottom="0"
     inkscape:window-width="1280"
     inkscape:window-height="683"
     inkscape:window-x="0"
     inkscape:window-y="0"
     inkscape:window-maximized="1" />
  <metadata
     id="metadata5">
    <rdf:RDF>
      <cc:Work
         rdf:about="">
        <dc:format>image/svg+xml</dc:format>
        <dc:type
           rdf:resource="http://purl.org/dc/dcmitype/StillImage" />
        <dc:title></dc:title>
      </cc:Work>
    </rdf:RDF>
  </metadata>
  <g
     inkscape:label="Слой 1"
     inkscape:groupmode="layer"
     id="layer1"
     transform="translate(45.3562,-14.915511)">
    <path
       style="fill:#ffffff;stroke-width:0.0625962"
       d="m -36.499769,58.019413 c -2.785787,-0.03715 -2.892662,-0.04304 -3.286305,-0.181185 -1.463051,-0.513433 -2.5178,-1.592097 -3.047342,-3.11644 l -0.17013,-0.489741 -0.02481,-2.41796 -0.02481,-2.41796 -0.707167,-0.02707 c -0.890347,-0.03408 -1.23586,-0.179667 -1.455959,-0.613492 -0.200451,-0.395098 -0.185759,-0.733657 0.0457,-1.053181 0.304621,-0.420514 0.417469,-0.465323 1.305273,-0.518273 0.436119,-0.02601 0.800277,-0.04942 0.809239,-0.05202 0.009,-0.0026 0.009,-1.265257 0,-2.805906 l -0.0163,-2.801181 -0.719857,-0.03486 c -0.569941,-0.0276 -0.774163,-0.06315 -0.980621,-0.170721 -0.396617,-0.206649 -0.552987,-0.467843 -0.552987,-0.923684 0,-0.334424 0.02421,-0.408678 0.20954,-0.642677 0.115245,-0.145511 0.265289,-0.294403 0.33343,-0.33087 0.06814,-0.03647 0.488204,-0.08251 0.933474,-0.102311 l 0.809582,-0.03601 -0.01628,-2.810677 -0.01628,-2.81068 -0.67356,-0.02533 c -1.036301,-0.03897 -1.423972,-0.266695 -1.560278,-0.916538 -0.06359,-0.303151 -0.05795,-0.371775 0.04806,-0.585418 0.150712,-0.303705 0.501318,-0.587138 0.816845,-0.660346 0.133209,-0.03091 0.502752,-0.05687 0.82121,-0.05769 l 0.579017,-0.0015 v -2.816831 -2.816832 l -0.67291,-0.0014 c -0.741755,-0.0015 -1.032775,-0.08865 -1.342779,-0.402037 -0.460059,-0.465079 -0.332278,-1.326654 0.237675,-1.602563 0.217693,-0.105381 1.114684,-0.233096 1.731066,-0.246469 0.02582,-5.68e-4 0.04718,-0.881279 0.04746,-1.957152 2.37e-4,-1.075873 0.02912,-2.205873 0.0641,-2.511111 0.199116,-1.738033 1.416266,-3.296812 3.050082,-3.90618 0.408784,-0.152466 0.491563,-0.159093 2.644163,-0.211697 1.222192,-0.02987 7.799495,-0.03688 14.616226,-0.01559 l 12.394058,0.03871 0.6885599,0.339755 c 0.833167,0.411109 1.3449603,0.80788 1.7772069,1.377793 0.3735926,0.492576 0.7799237,1.287862 0.8904701,1.742856 0.089945,0.370206 0.1481585,4.426394 0.1648471,11.486413 l 0.011167,4.726017 -1.7716944,1.416971 -1.7716926,1.416969 -0.0413,-2.668895 c -0.02271,-1.4679 -0.0429,-4.316749 -0.04486,-6.330784 -0.0019,-2.014034 -0.02626,-4.934259 -0.05401,-6.489388 -0.04696,-2.631831 -0.05885,-2.841931 -0.171781,-3.035919 -0.236715,-0.406617 0.579142,-0.383563 -14.507095,-0.409921 l -13.640848,-0.02383 -0.333766,0.32962 -0.333766,0.32962 v 2.217691 2.217692 l 0.470654,-0.0356 c 0.453674,-0.03431 0.482468,-0.04627 0.798103,-0.331479 0.485099,-0.438339 0.783193,-0.554303 1.422881,-0.553526 0.685517,8.28e-4 1.071353,0.160986 1.487921,0.617612 0.374811,0.410852 0.516291,0.799344 0.514095,1.411651 -0.0028,0.784745 -0.382218,1.402587 -1.073387,1.747968 -0.328947,0.164376 -0.454706,0.192465 -0.860381,0.192166 -0.738597,-5.67e-4 -0.845127,-0.04403 -1.607605,-0.656191 -0.201711,-0.161947 -0.294729,-0.190186 -0.692643,-0.21028 l -0.459638,-0.02321 v 2.823673 2.823674 h 0.434433 c 0.426223,0 0.442296,-0.006 0.850541,-0.318931 0.639592,-0.49022 0.883089,-0.577116 1.525853,-0.544526 0.63194,0.03204 0.94426,0.166243 1.323469,0.568691 0.417193,0.442758 0.525702,0.735144 0.527536,1.421498 0.0019,0.721725 -0.08666,0.93737 -0.595573,1.449798 -0.398857,0.401609 -0.77536,0.553529 -1.370332,0.552933 -0.509242,-4.97e-4 -0.77102,-0.09427 -1.2272,-0.439553 -0.558672,-0.422859 -0.5916,-0.436445 -1.057735,-0.436445 h -0.410992 v 2.816832 2.816831 h 0.371504 c 0.468119,0 0.599239,-0.05092 0.979981,-0.380598 0.43991,-0.3809 0.7561,-0.504 1.30004,-0.506134 0.564083,-0.0021 0.869372,0.08653 1.251408,0.363777 1.204881,0.874382 1.024855,2.784628 -0.324896,3.447466 -0.303978,0.149277 -0.429938,0.173844 -0.886399,0.172886 -0.618,-0.0012 -0.904251,-0.115446 -1.400858,-0.558623 -0.306925,-0.273903 -0.536739,-0.347906 -1.08043,-0.347906 h -0.21035 v 2.856362 2.85636 l 0.46516,-0.02985 c 0.451654,-0.02898 0.474825,-0.03858 0.798103,-0.330676 0.499306,-0.451141 0.784665,-0.560577 1.459675,-0.559799 0.458309,4.73e-4 0.618417,0.02735 0.858586,0.143836 0.384222,0.186358 0.864623,0.716765 1.003962,1.108471 0.122231,0.343615 0.143734,0.995835 0.0446,1.352755 -0.107232,0.386075 -0.44189,0.816957 -0.84038,1.082012 -0.354751,0.235962 -0.401034,0.249288 -0.948857,0.27325 -0.520795,0.02278 -0.610908,0.0092 -0.941577,-0.14179 -0.201116,-0.09184 -0.464256,-0.260763 -0.584754,-0.375393 -0.314413,-0.299097 -0.442291,-0.348408 -0.903529,-0.348408 h -0.410992 v 2.177178 2.177181 l 0.361745,0.357969 0.361742,0.357968 11.14032,-0.0053 c 6.127173,-0.003 12.375508,-0.02465 13.885185,-0.04823 l 2.744868,-0.04288 0.177644,-0.198818 c 0.0977,-0.109349 0.211014,-0.305948 0.251801,-0.436888 0.04969,-0.159512 0.08711,-1.161059 0.113407,-3.035107 l 0.03925,-2.797032 1.721397,-1.380722 c 0.9467676,-0.759395 1.7398123,-1.380966 1.7623209,-1.381266 0.1053344,-0.0014 0.1282595,1.666681 0.072258,5.257541 -0.059446,3.811593 -0.064635,3.922737 -0.2016597,4.319141 -0.457289,1.322916 -1.3190945,2.315981 -2.5405649,2.927508 -0.5853323,0.293048 -1.0608273,0.33904 -4.0061593,0.387485 -3.279791,0.05395 -18.996454,0.05593 -22.972825,0.0029 z m 18.778876,-8.677577 c -0.711744,-0.174067 -0.813405,-0.631512 -0.404045,-1.818084 0.379093,-1.098839 1.541029,-3.282992 1.912443,-3.594924 0.313055,-0.262919 0.284973,-0.291197 2.736764,2.755826 0.807434,1.003453 0.965273,1.232046 0.902749,1.307383 -0.311433,0.375251 -1.662729,0.859308 -3.332621,1.193793 -0.642776,0.128754 -1.592867,0.210401 -1.81529,0.156006 z m -13.096228,-1.961284 c -1.531694,-0.04371 -1.552055,-0.05066 -1.853175,-0.631954 -0.228552,-0.441211 -0.212346,-0.868009 0.04718,-1.242505 0.358106,-0.516745 -0.153392,-0.473999 5.857063,-0.489486 l 5.351981,-0.01379 0.281681,0.345534 c 0.154928,0.190041 0.300832,0.393425 0.324232,0.451963 0.149008,0.372739 -0.103368,1.143242 -0.456927,1.394998 -0.172569,0.122882 -0.304437,0.13786 -1.639337,0.186223 -1.608345,0.05827 -5.85516,0.05774 -7.912698,-9.47e-4 z m 18.75589,-0.644408 c -0.212709,-0.249601 -0.461444,-0.538326 -0.552751,-0.641609 -0.658339,-0.744704 -2.321379,-2.900429 -2.321379,-3.009104 0,-0.110993 1.633475,-1.475645 6.259627,-5.22948 6.7718439,-5.494934 9.38146302,-7.568988 9.7243138,-7.728622 0.3800656,-0.176963 0.4755794,-0.182739 0.9063638,-0.05481 0.2959504,0.08789 0.3786792,0.159257 0.9251321,0.798102 1.0743504,1.256 1.7006056,2.130442 1.7469098,2.439218 0.063804,0.425486 -0.051332,0.735801 -0.3917315,1.055792 -0.2782869,0.261604 -2.9998483,2.530786 -4.24785397,3.541772 -4.10829063,3.32806 -11.55733603,9.282564 -11.61242403,9.282564 -0.02721,0 -0.223502,-0.204219 -0.436207,-0.453823 z m -4.451998,-8.168808 c -0.356791,-0.380113 -2.841067,-4.103305 -2.756673,-4.131436 0.03675,-0.01225 0.231296,-0.138496 0.432334,-0.280547 0.601877,-0.425286 1.229261,-0.799156 1.341045,-0.799156 0.06069,0 0.232555,0.191322 0.407653,0.453823 0.380761,0.570816 0.793109,1.111084 0.848013,1.111084 0.03453,0 1.749292,-2.272128 2.062303,-2.732626 0.09079,-0.133573 0.09742,-0.130644 0.68356,0.301741 0.827735,0.61061 1.126354,0.862496 1.124372,0.948414 -0.0017,0.07593 -0.45837,0.710115 -2.533439,3.518608 -1.396919,1.890651 -1.312487,1.782234 -1.387957,1.782234 -0.0328,0 -0.132343,-0.07746 -0.221211,-0.172139 z m -15.257348,-0.960104 c -0.598332,-0.07741 -0.727227,-0.150363 -0.908536,-0.514197 -0.258684,-0.519113 -0.205925,-1.032098 0.146578,-1.425186 0.220617,-0.246017 0.241309,-0.25429 0.769341,-0.307616 1.816026,-0.183402 9.915089,-0.1186 10.398057,0.0832 0.296135,0.123731 0.539045,0.498178 0.587256,0.905245 0.0319,0.269361 0.01079,0.376157 -0.13208,0.668178 -0.208826,0.426824 -0.373233,0.520121 -1.054641,0.598475 -0.626688,0.07206 -9.241391,0.06495 -9.805975,-0.0081 z m 15.098306,-8.992701 c -0.429727,-0.587517 -1.057226,-1.488351 -1.912762,-2.74595 -0.677897,-0.996476 -0.721376,-1.078149 -0.620956,-1.166472 0.16449,-0.144677 1.645172,-1.110928 1.702385,-1.110928 0.02761,0 0.295425,0.352046 0.595137,0.782324 0.29971,0.430278 0.566037,0.79537 0.591837,0.811315 0.07848,0.0485 0.38417,-0.318306 1.315084,-1.57799 0.489768,-0.662737 0.911195,-1.204978 0.936503,-1.204978 0.02531,0 0.190892,0.105632 0.367961,0.234737 0.177072,0.129104 0.470884,0.341734 0.652919,0.47251 0.182032,0.130777 0.425563,0.318465 0.541174,0.417084 l 0.210205,0.179308 -0.863184,1.179121 c -1.788343,2.4429 -3.097073,4.152443 -3.178882,4.152443 -0.01561,0 -0.167444,-0.190136 -0.337421,-0.422524 z m -14.882395,-0.672928 c -0.03443,-0.01179 -0.197585,-0.03964 -0.36257,-0.06189 -0.783842,-0.105705 -1.181594,-1.035731 -0.740457,-1.731334 0.350933,-0.553364 0.372206,-0.558591 2.560689,-0.629207 2.124759,-0.06856 7.738352,-0.01752 8.310243,0.07556 0.419229,0.06823 0.718577,0.304608 0.911027,0.719386 0.204049,0.439784 0.110927,0.870085 -0.275477,1.272915 -0.392921,0.409624 -0.06084,0.386367 -5.439593,0.380944 -2.695695,-0.0027 -4.929434,-0.01459 -4.963862,-0.02637 z"
       id="path92" />
  </g>
</svg>
